HIERARCHY
ROOT hips
{
	OFFSET 0.000000 104.274902 0.000000
	CHANNELS 6 Xposition Yposition Zposition Xrotation Yrotation Zrotation
	JOINT spine
	{
		OFFSET 0.000000 10.181549 0.131524
		CHANNELS 6 Xposition Yposition Zposition Xrotation Yrotation Zrotation
		JOINT chest
		{
			OFFSET 0.000000 9.893990 -1.470706
			CHANNELS 3 Xrotation Yrotation Zrotation
			JOINT upperChest
			{
				OFFSET 0.000000 9.220787 -1.370637
				CHANNELS 3 Xrotation Yrotation Zrotation
				JOINT neck
				{
					OFFSET 0.000000 16.740372 -2.049022
					CHANNELS 6 Xposition Yposition Zposition Xrotation Yrotation Zrotation
					JOINT head
					{
						OFFSET 0.000000 9.617859 1.684976
						CHANNELS 6 Xposition Yposition Zposition Xrotation Yrotation Zrotation
						JOINT headEnd
						{
							OFFSET 0.000000 22.037384 7.501072
							CHANNELS 6 Xposition Yposition Zposition Xrotation Yrotation Zrotation
							End Site
							{
								OFFSET 0.000000 23.106567 -2.828246
							}
						}
					}
				}
				JOINT rightShoulder
				{
					OFFSET -4.570000 11.014877 -2.160840
					CHANNELS 6 Xposition Yposition Zposition Xrotation Yrotation Zrotation
					JOINT rightUpperArm
					{
						OFFSET -10.592867 -0.524796 -2.232105
						CHANNELS 3 Xrotation Yrotation Zrotation
						JOINT rightLowerArm
						{
							OFFSET -27.841497 0.000000 -0.000002
							CHANNELS 3 Xrotation Yrotation Zrotation
							JOINT rightHand
							{
								OFFSET -28.328812 0.000000 -0.000001
								CHANNELS 3 Xrotation Yrotation Zrotation
								JOINT rightThumbProximal
								{
									OFFSET -2.464798 -1.573990 2.681911
									CHANNELS 6 Xposition Yposition Zposition Xrotation Yrotation Zrotation
									JOINT rightThumbIntermediate
									{
										OFFSET -3.244781 -1.873383 1.873376
										CHANNELS 3 Xrotation Yrotation Zrotation
										JOINT rightThumbDistal
										{
											OFFSET -2.646263 -1.527817 1.527818
											CHANNELS 6 Xposition Yposition Zposition Xrotation Yrotation Zrotation
											JOINT rightHandThumb4
											{
												OFFSET -1.994591 -1.151581 1.151575
												CHANNELS 6 Xposition Yposition Zposition Xrotation Yrotation Zrotation
												End Site
												{
													OFFSET -1.860176 -1.142715 1.365483
												}
											}
										}
									}
								}
								JOINT rightIndexProximal
								{
									OFFSET -9.108299 -0.517883 2.259803
									CHANNELS 6 Xposition Yposition Zposition Xrotation Yrotation Zrotation
									JOINT rightIndexIntermediate
									{
										OFFSET -3.699997 0.000000 0.000000
										CHANNELS 3 Xrotation Yrotation Zrotation
										JOINT rightIndexDistal
										{
											OFFSET -2.850006 0.000000 0.000000
											CHANNELS 3 Xrotation Yrotation Zrotation
											JOINT rightHandIndex4
											{
												OFFSET -2.772194 0.000000 0.000000
												CHANNELS 3 Xrotation Yrotation Zrotation
												End Site
												{
													OFFSET -2.772202 0.000000 -0.000484
												}
											}
										}
									}
								}
								JOINT rightMiddleProximal
								{
									OFFSET -9.532501 0.000000 -0.000000
									CHANNELS 6 Xposition Yposition Zposition Xrotation Yrotation Zrotation
									JOINT rightMiddleIntermediate
									{
										OFFSET -3.699997 0.000000 0.000000
										CHANNELS 3 Xrotation Yrotation Zrotation
										JOINT rightMiddleDistal
										{
											OFFSET -2.949997 0.000000 0.000000
											CHANNELS 3 Xrotation Yrotation Zrotation
											JOINT rightHandMiddle4
											{
												OFFSET -2.946594 0.000000 0.000000
												CHANNELS 3 Xrotation Yrotation Zrotation
												End Site
												{
													OFFSET -2.946602 0.000000 -0.000982
												}
											}
										}
									}
								}
								JOINT rightRingProximal
								{
									OFFSET -9.103600 -0.043106 -1.865100
									CHANNELS 6 Xposition Yposition Zposition Xrotation Yrotation Zrotation
									JOINT rightRingIntermediate
									{
										OFFSET -3.379303 0.000000 0.000000
										CHANNELS 3 Xrotation Yrotation Zrotation
										JOINT rightRingDistal
										{
											OFFSET -2.889694 0.000000 0.000000
											CHANNELS 3 Xrotation Yrotation Zrotation
											JOINT rightHandRing4
											{
												OFFSET -2.638802 0.000000 0.000000
												CHANNELS 3 Xrotation Yrotation Zrotation
												End Site
												{
													OFFSET -2.638802 0.000000 0.004218
												}
											}
										}
									}
								}
								JOINT rightLittleProximal
								{
									OFFSET -8.076698 -0.486725 -3.806299
									CHANNELS 6 Xposition Yposition Zposition Xrotation Yrotation Zrotation
									JOINT rightLittleIntermediate
									{
										OFFSET -3.600006 0.000000 0.000000
										CHANNELS 3 Xrotation Yrotation Zrotation
										JOINT rightLittleDistal
										{
											OFFSET -2.099998 0.000000 0.000000
											CHANNELS 3 Xrotation Yrotation Zrotation
											JOINT rightHandPinky4
											{
												OFFSET -2.115791 0.000000 0.000000
												CHANNELS 3 Xrotation Yrotation Zrotation
												End Site
												{
													OFFSET -2.115799 0.000000 0.000174
												}
											}
										}
									}
								}
							}
						}
					}
				}
				JOINT leftShoulder
				{
					OFFSET 4.570400 11.014679 -2.160816
					CHANNELS 6 Xposition Yposition Zposition Xrotation Yrotation Zrotation
					JOINT leftUpperArm
					{
						OFFSET 10.592373 -0.524597 -2.232116
						CHANNELS 3 Xrotation Yrotation Zrotation
						JOINT leftLowerArm
						{
							OFFSET 27.841488 0.000000 0.000001
							CHANNELS 3 Xrotation Yrotation Zrotation
							JOINT leftHand
							{
								OFFSET 28.328808 0.000000 -0.000000
								CHANNELS 3 Xrotation Yrotation Zrotation
								JOINT leftThumbProximal
								{
									OFFSET 2.466103 -1.576202 2.681698
									CHANNELS 6 Xposition Yposition Zposition Xrotation Yrotation Zrotation
									JOINT leftThumbIntermediate
									{
										OFFSET 3.243317 -1.872528 1.872530
										CHANNELS 3 Xrotation Yrotation Zrotation
										JOINT leftThumbDistal
										{
											OFFSET 2.647881 -1.528763 1.528754
											CHANNELS 6 Xposition Yposition Zposition Xrotation Yrotation Zrotation
											JOINT leftHandThumb4
											{
												OFFSET 1.998924 -1.154083 1.154080
												CHANNELS 6 Xposition Yposition Zposition Xrotation Yrotation Zrotation
												End Site
												{
													OFFSET 1.884041 -1.149155 1.337651
												}
											}
										}
									}
								}
								JOINT leftIndexProximal
								{
									OFFSET 9.109299 -0.518005 2.259900
									CHANNELS 6 Xposition Yposition Zposition Xrotation Yrotation Zrotation
									JOINT leftIndexIntermediate
									{
										OFFSET 3.699997 0.000000 0.000000
										CHANNELS 3 Xrotation Yrotation Zrotation
										JOINT leftIndexDistal
										{
											OFFSET 2.850006 0.000000 0.000000
											CHANNELS 3 Xrotation Yrotation Zrotation
											JOINT leftHandIndex4
											{
												OFFSET 2.774895 0.000000 0.000000
												CHANNELS 3 Xrotation Yrotation Zrotation
												End Site
												{
													OFFSET 2.774902 0.000000 -0.000072
												}
											}
										}
									}
								}
								JOINT leftMiddleProximal
								{
									OFFSET 9.533401 0.000000 0.000000
									CHANNELS 6 Xposition Yposition Zposition Xrotation Yrotation Zrotation
									JOINT leftMiddleIntermediate
									{
										OFFSET 3.699997 0.000000 0.000000
										CHANNELS 3 Xrotation Yrotation Zrotation
										JOINT leftMiddleDistal
										{
											OFFSET 2.949997 0.000000 0.000000
											CHANNELS 3 Xrotation Yrotation Zrotation
											JOINT leftHandMiddle4
											{
												OFFSET 2.952896 0.000000 0.000000
												CHANNELS 3 Xrotation Yrotation Zrotation
												End Site
												{
													OFFSET 2.952904 0.000000 0.000165
												}
											}
										}
									}
								}
								JOINT leftRingProximal
								{
									OFFSET 9.104500 -0.042999 -1.865101
									CHANNELS 6 Xposition Yposition Zposition Xrotation Yrotation Zrotation
									JOINT leftRingIntermediate
									{
										OFFSET 3.149994 0.000000 0.000000
										CHANNELS 3 Xrotation Yrotation Zrotation
										JOINT leftRingDistal
										{
											OFFSET 2.950005 0.000000 0.000000
											CHANNELS 3 Xrotation Yrotation Zrotation
											JOINT leftHandRing4
											{
												OFFSET 2.644302 0.000000 0.000000
												CHANNELS 3 Xrotation Yrotation Zrotation
												End Site
												{
													OFFSET 2.644302 0.000000 0.000083
												}
											}
										}
									}
								}
								JOINT leftLittleProximal
								{
									OFFSET 8.077805 -0.486893 -3.806302
									CHANNELS 6 Xposition Yposition Zposition Xrotation Yrotation Zrotation
									JOINT leftLittleIntermediate
									{
										OFFSET 3.600006 0.000000 0.000000
										CHANNELS 3 Xrotation Yrotation Zrotation
										JOINT leftLittleDistal
										{
											OFFSET 2.099998 0.000000 0.000000
											CHANNELS 3 Xrotation Yrotation Zrotation
											JOINT leftHandPinky4
											{
												OFFSET 2.125496 0.000000 0.000000
												CHANNELS 3 Xrotation Yrotation Zrotation
												End Site
												{
													OFFSET 2.125504 0.000000 -0.001254
												}
											}
										}
									}
								}
							}
						}
					}
				}
			}
		}
	}
	JOINT rightUpperLeg
	{
		OFFSET -8.207800 -6.751701 -1.599544
		CHANNELS 6 Xposition Yposition Zposition Xrotation Yrotation Zrotation
		JOINT rightLowerLeg
		{
			OFFSET 0.000004 -44.370152 0.345934
			CHANNELS 3 Xrotation Yrotation Zrotation
			JOINT rightFoot
			{
				OFFSET 0.000004 -44.423664 -3.043535
				CHANNELS 3 Xrotation Yrotation Zrotation
				JOINT rightToes
				{
					OFFSET 0.000001 -8.728691 10.710592
					CHANNELS 3 Xrotation Yrotation Zrotation
					JOINT rightToesEnd
					{
						OFFSET 0.000000 -0.000665 9.278101
						CHANNELS 3 Xrotation Yrotation Zrotation
						End Site
						{
							OFFSET 0.000000 -0.000665 9.278103
						}
					}
				}
			}
		}
	}
	JOINT leftUpperLeg
	{
		OFFSET 8.207800 -6.751701 -1.599544
		CHANNELS 6 Xposition Yposition Zposition Xrotation Yrotation Zrotation
		JOINT leftLowerLeg
		{
			OFFSET 0.000004 -44.370037 0.346940
			CHANNELS 3 Xrotation Yrotation Zrotation
			JOINT leftFoot
			{
				OFFSET 0.000004 -44.423611 -3.044388
				CHANNELS 3 Xrotation Yrotation Zrotation
				JOINT leftToes
				{
					OFFSET 0.000001 -8.728690 10.710592
					CHANNELS 3 Xrotation Yrotation Zrotation
					JOINT leftToesEnd
					{
						OFFSET 0.000000 -0.000680 9.278101
						CHANNELS 3 Xrotation Yrotation Zrotation
						End Site
						{
							OFFSET 0.000000 -0.000680 9.278101
						}
					}
				}
			}
		}
	}
}
MOTION
Frames: 4
Frame Time: 0.033333
-0.233775 100.497185 -1.969822 1.761401 177.593005 -0.396993 0.000000 10.181559 0.131524 -1.900061 -8.510640 1.212022 -0.586532 -1.893478 0.196582 -0.606482 -1.886283 0.206027 -0.000000 16.740370 -2.049019 -0.224569 3.498974 -3.440297 0.000000 9.617848 1.684975 7.695039 12.365559 -2.478616 0.000000 22.037369 7.501072 -0.000000 -0.000000 0.000000 -4.570001 11.014881 -2.160839 1.353245 10.098892 1.780449 -52.091237 10.541634 44.540374 0.000138 123.005355 -0.000093 -10.268935 8.959636 -34.793557 -2.464786 -1.573971 2.681915 12.374322 -43.288953 16.831896 37.520323 -20.127898 -34.549327 -2.646261 -1.527834 1.527814 15.867673 0.344791 -23.824822 -1.994594 -1.151586 1.151572 0.000001 -0.000006 -0.000002 -9.108309 -0.517863 2.259799 4.600928 -6.541564 70.210848 8.060457 -6.859056 99.233401 2.430583 -5.284564 49.374816 -0.000002 -0.000001 0.000003 -9.532509 0.000007 0.000000 4.600927 -6.541564 70.210848 8.060456 -6.859057 99.233414 2.430582 -5.284563 49.374813 -0.000002 0.000001 -0.000001 -9.103617 -0.043096 -1.865104 4.600928 -6.541563 70.210848 8.060455 -6.859057 99.233401 2.430585 -5.284563 49.374819 0.000002 0.000000 -0.000002 -8.076719 -0.486710 -3.806300 4.600922 -6.541573 70.210854 8.060468 -6.859074 99.233401 2.430589 -5.284566 49.374795 -0.000002 0.000002 0.000000 4.570399 11.014672 -2.160815 1.492332 -2.669171 3.532345 -74.792778 -39.529491 -68.827686 0.000031 -100.716446 0.000031 -18.358500 -7.402764 -8.328949 2.466108 -1.576178 2.681696 20.119832 23.495149 7.304512 1.968201 34.886947 -1.772076 2.647892 -1.528751 1.528748 -1.770799 15.030017 1.503655 1.998929 -1.154096 1.154065 -0.000002 0.000000 -0.000002 9.109301 -0.517992 2.259898 0.093272 1.131905 -9.422890 0.203342 1.664310 -13.931516 0.050998 0.838331 -6.964275 -0.000000 0.000000 -0.000000 9.533404 -0.000000 -0.000001 0.092963 1.130012 -9.406907 0.203793 1.666161 -13.947504 0.051005 0.838332 -6.964281 0.000000 -0.000003 -0.000000 9.104504 -0.042982 -1.865104 0.093272 1.131905 -9.422887 0.203342 1.664310 -13.931514 0.050998 0.838329 -6.964275 -0.000000 -0.000001 0.000000 8.077800 -0.486874 -3.806304 0.741304 5.134257 -8.947903 0.200178 -2.391822 -14.427356 0.051005 0.838343 -6.964293 -0.000000 -0.000002 0.000000 -8.207801 -6.751707 -1.599542 -8.064166 -12.051361 -13.299970 14.920447 -1.370568 -7.354509 -4.001264 -1.231739 13.168192 -1.380311 0.000008 -0.000002 0.000000 -0.000000 0.000000 8.207800 -6.751694 -1.599544 -12.270085 1.391119 6.868774 27.755391 8.734364 6.298129 -7.901202 1.607575 -13.531156 -6.425989 -0.000005 -0.000002 0.000000 -0.000000 -0.000000 
-0.184155 100.462173 -1.986239 1.786572 177.587254 -0.403402 -0.000000 10.181549 0.131523 -1.858208 -8.415639 1.250642 -0.573352 -1.872676 0.204929 -0.593040 -1.865904 0.213914 -0.000001 16.740370 -2.049020 -0.356723 3.511250 -3.491514 -0.000001 9.617850 1.684979 7.698968 12.308470 -2.381858 0.000001 22.037369 7.501074 -0.000000 -0.000000 -0.000000 -4.570000 11.014853 -2.160839 1.345308 10.103934 1.920570 -51.958478 10.515639 44.280147 0.000173 122.992186 -0.000100 -10.556352 8.965624 -34.960938 -2.464792 -1.574003 2.681910 12.374317 -43.288953 16.831895 37.520319 -20.127902 -34.549323 -2.646276 -1.527826 1.527824 15.867673 0.344784 -23.824818 -1.994590 -1.151582 1.151584 0.000001 -0.000005 -0.000000 -9.108307 -0.517886 2.259798 4.600926 -6.541565 70.210854 8.060457 -6.859061 99.233401 2.430579 -5.284563 49.374819 0.000001 -0.000001 0.000001 -9.532522 -0.000004 -0.000005 4.600926 -6.541564 70.210848 8.060459 -6.859056 99.233407 2.430582 -5.284562 49.374813 0.000001 0.000000 0.000000 -9.103612 -0.043104 -1.865098 4.600927 -6.541564 70.210854 8.060457 -6.859063 99.233394 2.430577 -5.284561 49.374823 0.000006 0.000001 0.000002 -8.076717 -0.486722 -3.806303 4.600919 -6.541574 70.210854 8.060473 -6.859079 99.233407 2.430589 -5.284566 49.374795 0.000001 0.000003 -0.000001 4.570400 11.014672 -2.160814 1.508492 -2.736506 3.510661 -74.604824 -39.734257 -68.307602 0.000034 -100.802220 0.000028 -18.179520 -8.276327 -7.792115 2.466081 -1.576209 2.681705 20.119830 23.495147 7.304512 1.968199 34.886943 -1.772079 2.647856 -1.528769 1.528752 -1.770800 15.030011 1.503658 1.998928 -1.154086 1.154093 0.000002 -0.000005 0.000002 9.109270 -0.518016 2.259904 0.093272 1.131907 -9.422883 0.203340 1.664306 -13.931515 0.050998 0.838332 -6.964273 0.000000 -0.000002 -0.000000 9.533387 -0.000015 0.000004 0.092964 1.130014 -9.406903 0.203794 1.666160 -13.947504 0.051005 0.838329 -6.964280 -0.000000 0.000000 0.000000 9.104477 -0.043018 -1.865094 0.093272 1.131907 -9.422884 0.203340 1.664306 -13.931512 0.050998 0.838333 -6.964275 -0.000000 0.000002 0.000000 8.077787 -0.486894 -3.806298 0.741306 5.134260 -8.947902 0.200177 -2.391823 -14.427356 0.051005 0.838342 -6.964293 -0.000000 0.000001 -0.000000 -8.207800 -6.751699 -1.599544 -7.971389 -11.893407 -13.224564 14.979208 -1.123534 -7.422805 -4.252788 -1.270489 13.270359 -1.473230 0.000002 0.000001 -0.000000 -0.000001 -0.000000 8.207798 -6.751682 -1.599545 -12.239074 1.207828 6.887445 27.859443 8.745442 6.278057 -8.019058 1.624291 -13.548280 -6.452107 0.000003 0.000002 -0.000000 -0.000000 0.000000 
-0.131931 100.430092 -2.003200 1.825844 177.573703 -0.404262 -0.000000 10.181554 0.131525 -1.812945 -8.322590 1.286724 -0.557428 -1.852700 0.211607 -0.576719 -1.846396 0.220022 0.000000 16.740385 -2.049021 -0.458349 3.532110 -3.553801 0.000000 9.617828 1.684974 7.663939 12.290407 -2.259607 0.000000 22.037354 7.501076 -0.000000 -0.000000 -0.000000 -4.570000 11.014890 -2.160844 1.340731 10.118509 2.024866 -51.866459 10.423301 44.087167 0.000139 122.924567 -0.000071 -10.745045 9.024896 -35.228388 -2.464799 -1.573982 2.681914 12.374319 -43.288953 16.831888 37.520316 -20.127898 -34.549323 -2.646265 -1.527794 1.527820 15.867673 0.344786 -23.824820 -1.994578 -1.151568 1.151565 -0.000001 0.000003 -0.000002 -9.108307 -0.517870 2.259807 4.600929 -6.541565 70.210854 8.060458 -6.859059 99.233401 2.430577 -5.284565 49.374816 0.000001 -0.000004 0.000004 -9.532507 0.000008 0.000001 4.600931 -6.541564 70.210848 8.060460 -6.859059 99.233414 2.430581 -5.284564 49.374813 0.000001 -0.000003 0.000003 -9.103612 -0.043088 -1.865101 4.600929 -6.541564 70.210854 8.060457 -6.859057 99.233401 2.430578 -5.284562 49.374819 0.000003 0.000002 0.000002 -8.076706 -0.486709 -3.806299 4.600926 -6.541574 70.210854 8.060471 -6.859072 99.233401 2.430588 -5.284567 49.374795 0.000008 -0.000002 0.000003 4.570400 11.014694 -2.160819 1.518070 -2.786145 3.489154 -74.489019 -39.845107 -67.839911 0.000021 -100.827533 0.000023 -18.041612 -9.252358 -7.375796 2.466114 -1.576184 2.681700 20.119832 23.495147 7.304513 1.968199 34.886943 -1.772075 2.647884 -1.528755 1.528749 -1.770800 15.030012 1.503656 1.998917 -1.154058 1.154076 -0.000001 -0.000005 -0.000003 9.109297 -0.517993 2.259901 0.093270 1.131904 -9.422887 0.203341 1.664308 -13.931518 0.050998 0.838331 -6.964273 0.000000 -0.000001 0.000000 9.533399 0.000013 0.000001 0.092963 1.130011 -9.406909 0.203792 1.666157 -13.947504 0.051005 0.838333 -6.964279 0.000000 0.000000 0.000000 9.104504 -0.042980 -1.865099 0.093270 1.131904 -9.422887 0.203340 1.664307 -13.931519 0.050998 0.838330 -6.964276 -0.000000 -0.000003 -0.000000 8.077807 -0.486880 -3.806301 0.741304 5.134256 -8.947906 0.200178 -2.391819 -14.427356 0.051006 0.838346 -6.964293 -0.000000 -0.000002 0.000000 -8.207801 -6.751694 -1.599543 -7.876619 -11.768419 -13.150302 15.042080 -0.810019 -7.517820 -4.485750 -1.308296 13.394056 -1.573247 0.000007 -0.000003 -0.000000 0.000002 0.000000 8.207799 -6.751689 -1.599545 -12.190157 1.047980 6.905960 27.946503 8.766821 6.250495 -8.137383 1.638922 -13.546756 -6.467250 -0.000003 -0.000002 -0.000000 -0.000000 -0.000000 
-0.084857 100.397682 -2.016186 1.877331 177.539744 -0.384577 -0.000000 10.181553 0.131523 -1.761779 -8.233108 1.311787 -0.537210 -1.834091 0.215259 -0.555935 -1.828209 0.222989 -0.000001 16.740379 -2.049025 -0.528000 3.563481 -3.617332 -0.000000 9.617870 1.684971 7.601773 12.336302 -2.141903 0.000000 22.037354 7.501078 0.000000 -0.000000 0.000000 -4.570001 11.014871 -2.160846 1.339401 10.138005 2.093885 -51.871998 10.289709 44.032631 0.000189 122.785054 -0.000120 -10.786528 9.148051 -35.623473 -2.464805 -1.573997 2.681900 12.374321 -43.288950 16.831896 37.520316 -20.127902 -34.549327 -2.646242 -1.527796 1.527816 15.867670 0.344788 -23.824820 -1.994620 -1.151600 1.151589 0.000002 -0.000001 -0.000000 -9.108309 -0.517886 2.259793 4.600929 -6.541564 70.210854 8.060455 -6.859059 99.233401 2.430578 -5.284564 49.374816 -0.000001 -0.000001 0.000000 -9.532478 -0.000004 -0.000006 4.600929 -6.541564 70.210854 8.060455 -6.859058 99.233407 2.430580 -5.284566 49.374813 -0.000002 -0.000000 -0.000001 -9.103585 -0.043103 -1.865108 4.600929 -6.541563 70.210854 8.060455 -6.859055 99.233401 2.430577 -5.284564 49.374816 -0.000002 -0.000001 0.000002 -8.076688 -0.486726 -3.806305 4.600919 -6.541575 70.210854 8.060470 -6.859077 99.233407 2.430591 -5.284566 49.374795 -0.000005 -0.000001 -0.000001 4.570399 11.014692 -2.160820 1.510135 -2.780919 3.498009 -74.554302 -39.853324 -67.545749 -0.000020 -100.652536 -0.000022 -17.948697 -10.358398 -7.101047 2.466089 -1.576213 2.681696 20.119833 23.495149 7.304511 1.968197 34.886943 -1.772081 2.647906 -1.528751 1.528753 -1.770802 15.030017 1.503649 1.998917 -1.154094 1.154082 0.000001 0.000001 -0.000000 9.109306 -0.518008 2.259897 0.093270 1.131904 -9.422887 0.203340 1.664308 -13.931516 0.050999 0.838332 -6.964274 -0.000000 -0.000000 -0.000000 9.533401 0.000005 -0.000001 0.092963 1.130012 -9.406911 0.203794 1.666161 -13.947504 0.051005 0.838331 -6.964279 -0.000000 -0.000001 0.000000 9.104506 -0.042997 -1.865102 0.093270 1.131904 -9.422889 0.203340 1.664308 -13.931517 0.050998 0.838333 -6.964275 0.000000 0.000001 -0.000001 8.077807 -0.486892 -3.806305 0.741305 5.134258 -8.947904 0.200180 -2.391819 -14.427356 0.051006 0.838344 -6.964293 0.000000 0.000003 -0.000000 -8.207804 -6.751700 -1.599543 -7.806778 -11.685031 -13.100024 15.136182 -0.388328 -7.647814 -4.717975 -1.348448 13.526980 -1.681398 -0.000000 -0.000006 0.000000 0.000002 0.000001 8.207798 -6.751698 -1.599544 -12.124579 0.926825 6.904510 28.013830 8.795828 6.216616 -8.277225 1.652831 -13.513867 -6.460461 0.000010 0.000001 -0.000000 -0.000001 0.000000 
